PathFileType	4	(X/Y/Z)	/Users/niels/Desktop/University/Third Semester/Perception and Action/Exam/Gymnastics Motion Tracking/Code for Gym Tracking/Analyzed Data/Webcam_Backflip/id1_5_trajectory_Sports2D/id1_5_trajectory_Sports2D_px_person00.trc
DataRate	CameraRate	NumFrames	NumMarkers	Units	OrigDataRate	OrigDataStartFrame	OrigNumFrames
29.71698113207547	29.71698113207547	12	22	m	29.71698113207547	26	106
Frame#	Time	Hip			RHip			RKnee			RAnkle			RBigToe			RSmallToe			RHeel			LHip			LKnee			LAnkle			LBigToe			LSmallToe			LHeel			Neck			Head			Nose			RShoulder			RElbow			RWrist			LShoulder			LElbow			LWrist		
		X1	Y1	Z1	X2	Y2	Z2	X3	Y3	Z3	X4	Y4	Z4	X5	Y5	Z5	X6	Y6	Z6	X7	Y7	Z7	X8	Y8	Z8	X9	Y9	Z9	X10	Y10	Z10	X11	Y11	Z11	X12	Y12	Z12	X13	Y13	Z13	X14	Y14	Z14	X15	Y15	Z15	X16	Y16	Z16	X17	Y17	Z17	X18	Y18	Z18	X19	Y19	Z19	X20	Y20	Z20	X21	Y21	Z21	X22	Y22	Z22
26	0.8749206349206348	0.9871283069822103	-0.6173341011371555	0.0	0.9840116786937877	-0.6136344938700338	0.0	1.0140786847968202	-0.7312413571079064	0.0	0.9638489154394889	-0.8511168910992136	0.0	1.0064860664389619	-0.8827880992714873	0.0	0.9945141421969029	-0.8847799125826648	0.0	0.9478327990706352	-0.8692174933129531	0.0	0.9987636491962879	-0.6129485485130319	0.0	1.0137136292593856	-0.7296467090347797	0.0	0.9699808305511254	-0.8455111775418098	0.0	1.0125487711408807	-0.8775647401142288	0.0	1.0089346674107298	-0.8716402268056581	0.0	0.9497424845582279	-0.8639868820860366	0.0	0.9832379855612657	-0.4311054254128751	0.0	1.006102838261074	-0.3497714779710727	0.0	1.0207424232002829	-0.3996009826520353	0.0	0.9731515312751768	-0.4549222784421205	0.0	1.036225865179209	-0.5176507602436641	0.0	1.1200830682115872	-0.5421583232776539	0.0	0.9759724557215294	-0.453779766246944	0.0	1.021426254720487	-0.5210434178937366	0.0	1.032485689095786	-0.5564722267244128	0.0
27	0.9085714285714285	0.9840491212451885	-0.62081947897364	0.0	0.9811206450265513	-0.617830308081684	0.0	1.0154099956203357	-0.7345176862834979	0.0	0.9644870182708135	-0.8537333511453725	0.0	1.0070291117808001	-0.8856721584197884	0.0	0.9952792400876977	-0.8873722364494517	0.0	0.9480579169505132	-0.8714246387467532	0.0	0.9962059332798127	-0.617260419591915	0.0	1.0135973683231767	-0.7333941935927324	0.0	0.9701221170081963	-0.848836121733477	0.0	1.013649176926038	-0.8808251175052483	0.0	1.0098395383795682	-0.8748562746778771	0.0	0.9498972333899138	-0.8675635713365634	0.0	0.9871342725313705	-0.4351675830639015	0.0	1.0142310198004978	-0.35588166623436457	0.0	1.026420084959818	-0.40640716282545986	0.0	0.9749166890236116	-0.45863490466150625	0.0	1.0295874699402419	-0.5291373378007251	0.0	1.110460347685614	-0.5669659054341876	0.0	0.9813864155567184	-0.45842547263540634	0.0	1.0253493169774948	-0.5287116805561959	0.0	1.0437104988449426	-0.5735890676724247	0.0
28	0.9422222222222221	0.980779058870093	-0.6243042241374721	0.0	0.9782394336151702	-0.6219058376447372	0.0	1.0150673051009387	-0.737901634141789	0.0	0.9645879397088364	-0.857299005532519	0.0	1.0072667028399527	-0.8889120435016123	0.0	0.995840321524331	-0.8904994971924459	0.0	0.94785861995032	-0.874702853442606	0.0	0.9932101156422213	-0.6213414896044627	0.0	1.0121963275638872	-0.7371519658859892	0.0	0.9697354851769352	-0.852728150163814	0.0	1.0145195109344745	-0.8841756093778151	0.0	1.0103605557825015	-0.8782796997310409	0.0	0.9498354329090228	-0.8716073978515418	0.0	0.9911296909183193	-0.4391135429034518	0.0	1.0218746908927512	-0.36216778001756944	0.0	1.0318703605639055	-0.4131135687035445	0.0	0.9766968622186354	-0.46212662410275773	0.0	1.0213114681042545	-0.539795979844035	0.0	1.0971802810925428	-0.5893692378106273	0.0	0.9873730324920723	-0.4629373994738322	0.0	1.0286706412326367	-0.5356715273712319	0.0	1.0574877351396157	-0.5870136400609018	0.0
29	0.9758730158730158	0.9777409699132629	-0.6275268419553859	0.0	0.9757925597290033	-0.6254833625586809	0.0	1.012793113231247	-0.7412070233276727	0.0	0.9640221756898727	-0.8616199288467891	0.0	1.0069963658655119	-0.8922063687247308	0.0	0.9960570927575204	-0.8938594499302003	0.0	0.947345016384749	-0.8789734458662832	0.0	0.9900802175077558	-0.6248283296432326	0.0	1.0094419602737537	-0.7406845789734039	0.0	0.9687103817150238	-0.8570838164299402	0.0	1.0147152048872268	-0.8874055608540777	0.0	1.010012279184661	-0.8818334234800955	0.0	0.9495238196914739	-0.8759288130297861	0.0	0.9949754512623789	-0.44260955228480736	0.0	1.0292088932225143	-0.36806638327460334	0.0	1.0369323616707853	-0.4191113932187339	0.0	0.9786497709376054	-0.4649614961373963	0.0	1.0116870008788965	-0.5479942005448946	0.0	1.08052572952392	-0.6070967256749865	0.0	0.9927476118941049	-0.4667217194092395	0.0	1.0293790598287493	-0.5412143218373073	0.0	1.0674098542208168	-0.59601268218172	0.0
30	1.0095238095238095	0.9753198851147046	-0.6301812529021102	0.0	0.9739127115561222	-0.6282221282072608	0.0	1.0086037426182515	-0.7441863124912619	0.0	0.9628925653050718	-0.8661774863002425	0.0	1.0061705604256777	-0.895205510046973	0.0	0.9959018364460923	-0.8970752687925456	0.0	0.9468626853196294	-0.883820590529806	0.0	0.9871606526612858	-0.6274859723114342	0.0	1.0054530247110125	-0.7437230487836572	0.0	0.9671200413802196	-0.8616229465391229	0.0	1.0139454304227147	-0.8902894033110563	0.0	1.0086604098548064	-0.8853973144047141	0.0	0.9490197671916231	-0.8802626080096965	0.0	0.9985207514320316	-0.44541172415919145	0.0	1.0364562745910217	-0.37310444104613116	0.0	1.0414890078275145	-0.4239568820004197	0.0	0.9807674062744483	-0.46670792058816757	0.0	1.0011223241727067	-0.5522308123761469	0.0	1.0611238336745332	-0.6181382667405824	0.0	0.9968501078781173	-0.4693570417865503	0.0	1.0264056946769673	-0.5444722876744489	0.0	1.069574286294486	-0.5992980289724238	0.0
31	1.043174603174603	0.9737105130740891	-0.6319703129632082	0.0	0.9724213235275219	-0.6298835674276893	0.0	1.0028409567646535	-0.7465264121572213	0.0	0.9614720356840386	-0.8702688244213721	0.0	1.0049014839942607	-0.8976409068972958	0.0	0.9953939375572659	-0.8998187913287663	0.0	0.9467563541372347	-0.8885321661007413	0.0	0.9847298070715842	-0.6292151921361294	0.0	1.0005054558278346	-0.7459740852449159	0.0	0.965193091640479	-0.865802220281175	0.0	1.0122242768895617	-0.8925748043261508	0.0	1.0065748555871334	-0.8886726178739179	0.0	0.9484013476341144	-0.8841469999358059	0.0	1.0017228924422348	-0.4473193745950375	0.0	1.0437046340557186	-0.37692416587630767	0.0	1.0455282159552644	-0.42739470767509147	0.0	0.9829036070525116	-0.46698026171188045	0.0	0.9900610839174612	-0.5516217930433277	0.0	1.039690761392456	-0.6208867706458571	0.0	0.9997875263903561	-0.47063296860252074	0.0	1.0198912110122718	-0.5446756396926766	0.0	1.0635481840109275	-0.5958327594866627	0.0
32	1.0768253968253967	0.9728851501848875	-0.6325936359563401	0.0	0.9710746716440979	-0.6302741539006429	0.0	0.9960983131228945	-0.7478787877419596	0.0	0.9600537461661696	-0.8731910085558874	0.0	1.0033912741244373	-0.8993031423713572	0.0	0.9945159603991651	-0.9018177544081771	0.0	0.9471200302496846	-0.8922627517285531	0.0	0.9829507464762227	-0.6299005494146053	0.0	0.9949488523558102	-0.7471686502221148	0.0	0.9632209662572697	-0.8688968787628579	0.0	1.0098265264398136	-0.8939945265106946	0.0	1.004166410925265	-0.8911714108826292	0.0	0.9476728919233934	-0.8869630757755232	0.0	1.0045976427030592	-0.44813814893316256	0.0	1.0508106237700137	-0.379285338419784	0.0	1.0491860059864186	-0.4292767728354387	0.0	0.9849620753213474	-0.46552332287081716	0.0	0.9790104663971256	-0.5460243475366041	0.0	1.0169208987979985	-0.61418314803038	0.0	1.0020657181216106	-0.4704057526537775	0.0	1.0109450426662148	-0.5412598923010146	0.0	1.0506732598385626	-0.585338767626555	0.0
33	1.1104761904761904	0.9726200066237616	-0.6317078700470771	0.0	0.9697387655184835	-0.6291605950707341	0.0	0.9890564392474832	-0.7479036441451351	0.0	0.95885763657208	-0.8743620924864143	0.0	1.0018546884514363	-0.8998986042751791	0.0	0.993219908786532	-0.902759010746733	0.0	0.9477622618658428	-0.8942156666050907	0.0	0.9817805027827358	-0.6292537419252017	0.0	0.989158924923629	-0.7470565602818073	0.0	0.9614477560434129	-0.8701703945279577	0.0	1.0071526082515532	-0.8942221845305133	0.0	1.001748755156829	-0.8923060690808892	0.0	0.9467642794049328	-0.8880836185393711	0.0	1.0072077693075807	-0.4476964982992	0.0	1.057499980465294	-0.38009941253368773	0.0	1.0526833066217134	-0.4295603505208432	0.0	0.9869703223464787	-0.46229472899532154	0.0	0.968539282077343	-0.5357963248963084	0.0	0.9933594256440402	-0.5973300623143581	0.0	1.0041386303395465	-0.46850693433254664	0.0	1.001193692994141	-0.5337498835117884	0.0	1.0324479801233053	-0.5682958549220629	0.0
34	1.1441269841269839	0.9725041068470943	-0.6289563418949746	0.0	0.9683323656575943	-0.6262681180621712	0.0	0.9823350996795094	-0.7463239493138678	0.0	0.9579933176414445	-0.8734055234446327	0.0	1.0005005809773957	-0.898986357393863	0.0	0.9915627503137066	-0.9022114541128018	0.0	0.9483716755150066	-0.8938296692881353	0.0	0.9808880592893625	-0.6268260715010756	0.0	0.9834964621801129	-0.7453868604708553	0.0	0.9599972330928048	-0.8690928485844438	0.0	1.0045989201688605	-0.8928480671003488	0.0	0.9995244839665072	-0.8915178823798714	0.0	0.9456352007576847	-0.8870587915821205	0.0	1.0096610280860387	-0.4458999473827261	0.0	1.0636335368334104	-0.3794382631857577	0.0	1.0562069868129513	-0.4283433896323792	0.0	0.9890289728750764	-0.45746632660426767	0.0	0.9592978804177255	-0.5215356633353657	0.0	0.9693806539861016	-0.5706378300920862	0.0	1.006183730166001	-0.46480784243781237	0.0	0.9922065933987376	-0.5217758826226079	0.0	1.0100787697485683	-0.5457233255363728	0.0
35	1.1777777777777776	0.9719961890722723	-0.6240890355660895	0.0	0.9667143298060686	-0.6213696116931006	0.0	0.9764320353626165	-0.7429735788949999	0.0	0.9574616467111711	-0.870226703282642	0.0	0.9995956225750269	-0.8961262272114707	0.0	0.9898836735285167	-0.8997202935852692	0.0	0.9487023636393113	-0.8909081805662262	0.0	0.9797727494332413	-0.6222055233194924	0.0	0.9782830815556698	-0.7419585266510007	0.0	0.9589249736745017	-0.8655167732201312	0.0	1.002551215953451	-0.8894863293755099	0.0	0.9977526578024015	-0.8883896564065846	0.0	0.9444192038792002	-0.8837539119837726	0.0	1.0120688438543286	-0.4427905679270335	0.0	1.0693690862028908	-0.37753732869497325	0.0	1.059840776018252	-0.4258682148328948	0.0	0.9912884682508921	-0.45138162281324246	0.0	0.9519603022594852	-0.5042033587686651	0.0	0.9457455428709903	-0.536846503140568	0.0	1.0081346702275036	-0.4593626331019454	0.0	0.9849732623638059	-0.5056302962941123	0.0	0.9850829003294219	-0.5191895134962079	0.0
36	1.2114285714285713	0.9705696243938393	-0.6171019047262682	0.0	0.9646416331231781	-0.6144371608062894	0.0	0.9717331036821353	-0.7378107420009042	0.0	0.9572154670448583	-0.8650030932853298	0.0	0.9994063420490387	-0.8911248802585873	0.0	0.988698108234893	-0.8950395131744302	0.0	0.9486592366369847	-0.8855890804644417	0.0	0.9779885200031085	-0.6152880842594023	0.0	0.9738419245382456	-0.7366890916298283	0.0	0.9582966925033386	-0.859649971912761	0.0	1.001328903123947	-0.8839654485098312	0.0	0.996749129367166	-0.8827760628030643	0.0	0.9434275319402691	-0.8783274167292272	0.0	1.0145110477041996	-0.4385776267828404	0.0	1.0750461734866303	-0.3748301214261871	0.0	1.06359891766504	-0.4225307812654955	0.0	0.9939616012193769	-0.4445284212134422	0.0	0.9468059464212167	-0.4854384694551404	0.0	0.9239071142288334	-0.5013438804545368	0.0	1.0098875339564997	-0.452521858013149	0.0	0.979642361916753	-0.486968062147404	0.0	0.9600098544381213	-0.4911359042955272	0.0
37	1.245079365079365	0.9678825059348866	-0.6083324132366547	0.0	0.9617993101757689	-0.6057790113249275	0.0	0.968558539078573	-0.7308964026706436	0.0	0.9572141620786986	-0.8580650604402699	0.0	0.9999910418594699	-0.8841768888109048	0.0	0.9883053554400981	-0.8882928789625641	0.0	0.9483063980336048	-0.8782129669432747	0.0	0.9752730266829487	-0.6064492141294033	0.0	0.9705625355939828	-0.7296279831344498	0.0	0.9581790701208337	-0.8518835702111807	0.0	1.0009881994478027	-0.8764711315221494	0.0	0.9966345467119343	-0.874920108967015	0.0	0.9429708908998945	-0.871078560817319	0.0	1.0170351099863586	-0.4336604065677388	0.0	1.0809393467111306	-0.37196815624938884	0.0	1.0674903385602528	-0.41892204529429117	0.0	0.9972699519714757	-0.43750519665902265	0.0	0.9434285898447912	-0.46731697894262436	0.0	0.9051760155412703	-0.4697960368274608	0.0	1.011485836433134	-0.44494213587047515	0.0	0.9755871095575819	-0.46858445209964217	0.0	0.9375634231297701	-0.46490983735217317	0.0
